<svg id="visual" viewBox="0 0 900 675" width="900" height="675" xmlns="http://www.w3.org/2000/svg" xmlns:xlink="http://www.w3.org/1999/xlink" version="1.1"><rect width="900" height="675" fill="#334155"></rect><g><g transform="translate(13 353)"><path d="M48.6 -61.4C64.9 -44.3 81.3 -30.8 92.5 -10C103.7 10.8 109.7 38.8 101.5 63.7C93.2 88.6 70.7 110.4 47.6 109.6C24.5 108.8 1 85.5 -21.1 71.5C-43.1 57.6 -63.6 53.1 -84.5 38.3C-105.4 23.6 -126.8 -1.2 -122.7 -21.2C-118.6 -41.1 -89.2 -56.1 -64.5 -71.7C-39.8 -87.4 -19.9 -103.6 -1.9 -101.4C16.2 -99.2 32.4 -78.5 48.6 -61.4Z" stroke="#2dd4bf" fill="none" stroke-width="8"></path></g><g transform="translate(583 13)"><path d="M43 -55.2C51.6 -44 51.5 -26.6 54.5 -9.7C57.4 7.3 63.3 23.6 58.6 35.8C53.9 48 38.6 56.2 24 58.2C9.3 60.2 -4.8 56.2 -20 52C-35.2 47.8 -51.5 43.5 -56.2 33.4C-61 23.3 -54.2 7.5 -48.9 -6.1C-43.5 -19.7 -39.6 -31.1 -31.7 -42.4C-23.8 -53.6 -11.9 -64.7 2.7 -67.9C17.2 -71.1 34.4 -66.3 43 -55.2Z" stroke="#2dd4bf" fill="none" stroke-width="8"></path></g><g transform="translate(325 521)"><path d="M28.1 -32.9C37.6 -25.4 47.4 -17.8 51.4 -7.3C55.5 3.3 53.7 16.6 46.2 24C38.8 31.5 25.7 32.9 12.4 40.5C-0.8 48.1 -14.1 61.8 -27.7 62.7C-41.3 63.6 -55.1 51.7 -56.4 38.1C-57.8 24.4 -46.7 9.1 -40.7 -4.1C-34.7 -17.4 -34 -28.4 -28 -36.5C-22.1 -44.6 -11.1 -49.6 -0.9 -48.6C9.3 -47.5 18.5 -40.3 28.1 -32.9Z" stroke="#2dd4bf" fill="none" stroke-width="8"></path></g><g transform="translate(737 503)"><path d="M49.2 -60C56.5 -52.5 50 -30.1 52.2 -10.3C54.4 9.5 65.3 26.8 62.5 40.3C59.7 53.8 43.2 63.7 25.1 71.3C7 79 -12.9 84.4 -31.8 80.5C-50.8 76.6 -69 63.5 -80.5 45.5C-92 27.6 -96.8 4.8 -93.7 -17.3C-90.7 -39.3 -79.8 -60.8 -62.9 -66.6C-46 -72.3 -23 -62.5 -1 -61.3C21 -60.1 41.9 -67.5 49.2 -60Z" stroke="#2dd4bf" fill="none" stroke-width="8"></path></g><g transform="translate(237 116)"><path d="M62.3 -73.8C77.2 -61.7 83.3 -38.7 87.1 -15.6C90.8 7.5 92.2 30.8 80.6 42.5C69 54.1 44.4 54.2 24.4 57.2C4.5 60.2 -10.8 66 -23.7 62.5C-36.6 59 -47.1 46.1 -55.1 32C-63.2 17.8 -68.8 2.3 -70.5 -16.7C-72.2 -35.7 -70 -58.2 -57.6 -70.7C-45.2 -83.2 -22.6 -85.6 0.5 -86.3C23.7 -86.9 47.4 -85.8 62.3 -73.8Z" stroke="#2dd4bf" fill="none" stroke-width="8"></path></g><g transform="translate(866 159)"><path d="M40 -43.3C52 -37.6 62.1 -25.1 62.4 -12.6C62.7 0 53.3 12.6 44.5 23.6C35.7 34.5 27.5 43.7 18.3 44.7C9.1 45.6 -1.1 38.2 -11.1 33.3C-21.1 28.5 -31 26 -38.8 19.2C-46.7 12.3 -52.4 1 -50 -8.2C-47.6 -17.4 -37 -24.5 -27.4 -30.6C-17.7 -36.7 -8.8 -41.8 2.6 -44.9C14 -48 28 -49 40 -43.3Z" stroke="#2dd4bf" fill="none" stroke-width="8"></path></g></g></svg>